<mxfile host="app.diagrams.net" modified="2020-10-02T13:19:00.101Z" agent="5.0 (X11; Linux x86_64) AppleWebKit/537.36 (KHTML, like Gecko) Chrome/85.0.4183.121 Safari/537.36" etag="2JiTxxr9OikKbXnVTrpu" version="13.7.7" type="github">
  <diagram id="R2lEEEUBdFMjLlhIrx00" name="Page-1">
    <mxGraphModel dx="1958" dy="1559" grid="1" gridSize="10" guides="1" tooltips="1" connect="1" arrows="1" fold="1" page="1" pageScale="1" pageWidth="850" pageHeight="1100" math="0" shadow="0" extFonts="Permanent Marker^https://fonts.googleapis.com/css?family=Permanent+Marker">
      <root>
        <mxCell id="0" />
        <mxCell id="1" parent="0" />
        <mxCell id="GytPN-wBxECgcy7hrlEQ-49" style="edgeStyle=orthogonalEdgeStyle;rounded=1;orthogonalLoop=1;jettySize=auto;html=1;labelBorderColor=none;endArrow=ERmany;endFill=0;startArrow=ERone;startFill=0;strokeWidth=1;endSize=12;startSize=12;fillColor=#fff2cc;strokeColor=#d6b656;" parent="1" source="GytPN-wBxECgcy7hrlEQ-29" target="C-vyLk0tnHw3VtMMgP7b-23" edge="1">
          <mxGeometry relative="1" as="geometry">
            <mxPoint x="-40" y="-230" as="targetPoint" />
          </mxGeometry>
        </mxCell>
        <mxCell id="r2mLpPCgo3H6nydPWxPj-75" style="edgeStyle=orthogonalEdgeStyle;rounded=1;orthogonalLoop=1;jettySize=auto;html=1;entryX=-0.008;entryY=0.067;entryDx=0;entryDy=0;startArrow=ERmany;startFill=0;endArrow=ERmany;endFill=0;entryPerimeter=0;endSize=12;startSize=12;exitX=0.764;exitY=1.033;exitDx=0;exitDy=0;exitPerimeter=0;fillColor=#fff2cc;strokeColor=#d6b656;" parent="1" source="r2mLpPCgo3H6nydPWxPj-16" target="r2mLpPCgo3H6nydPWxPj-20" edge="1">
          <mxGeometry relative="1" as="geometry" />
        </mxCell>
        <mxCell id="GytPN-wBxECgcy7hrlEQ-51" style="edgeStyle=orthogonalEdgeStyle;rounded=1;orthogonalLoop=1;jettySize=auto;html=1;exitX=0.5;exitY=0;exitDx=0;exitDy=0;entryX=1;entryY=0.5;entryDx=0;entryDy=0;labelBorderColor=none;endArrow=ERone;endFill=0;startArrow=ERone;startFill=0;strokeWidth=1;endSize=12;startSize=12;fillColor=#fff2cc;strokeColor=#d6b656;" parent="1" source="GytPN-wBxECgcy7hrlEQ-15" target="GytPN-wBxECgcy7hrlEQ-29" edge="1">
          <mxGeometry relative="1" as="geometry" />
        </mxCell>
        <mxCell id="GytPN-wBxECgcy7hrlEQ-50" style="edgeStyle=orthogonalEdgeStyle;rounded=1;orthogonalLoop=1;jettySize=auto;html=1;entryX=0;entryY=0.5;entryDx=0;entryDy=0;labelBorderColor=none;endArrow=ERmany;endFill=0;startArrow=ERone;startFill=0;strokeWidth=1;endSize=12;startSize=12;fillColor=#fff2cc;strokeColor=#d6b656;" parent="1" source="r2mLpPCgo3H6nydPWxPj-7" target="C-vyLk0tnHw3VtMMgP7b-6" edge="1">
          <mxGeometry relative="1" as="geometry">
            <mxPoint x="-8" y="-55" as="sourcePoint" />
          </mxGeometry>
        </mxCell>
        <mxCell id="GytPN-wBxECgcy7hrlEQ-52" style="edgeStyle=orthogonalEdgeStyle;rounded=1;orthogonalLoop=1;jettySize=auto;html=1;exitX=0;exitY=0.5;exitDx=0;exitDy=0;entryX=1;entryY=0.5;entryDx=0;entryDy=0;labelBorderColor=none;endArrow=ERmany;endFill=0;startArrow=ERone;startFill=0;strokeWidth=1;endSize=12;startSize=12;fillColor=#fff2cc;strokeColor=#d6b656;" parent="1" source="GytPN-wBxECgcy7hrlEQ-19" target="C-vyLk0tnHw3VtMMgP7b-6" edge="1">
          <mxGeometry relative="1" as="geometry" />
        </mxCell>
        <mxCell id="C-vyLk0tnHw3VtMMgP7b-23" value="Customers" style="shape=table;startSize=30;container=1;collapsible=1;childLayout=tableLayout;fixedRows=1;rowLines=0;fontStyle=1;align=center;resizeLast=1;labelBorderColor=none;rounded=1;fillColor=#fff2cc;strokeColor=#d6b656;" parent="1" vertex="1">
          <mxGeometry x="-230" y="-160" width="220" height="240" as="geometry" />
        </mxCell>
        <mxCell id="C-vyLk0tnHw3VtMMgP7b-24" value="" style="shape=partialRectangle;collapsible=0;dropTarget=0;pointerEvents=0;fillColor=#fff2cc;points=[[0,0.5],[1,0.5]];portConstraint=eastwest;top=0;left=0;right=0;bottom=1;labelBorderColor=none;rounded=1;strokeColor=#d6b656;" parent="C-vyLk0tnHw3VtMMgP7b-23" vertex="1">
          <mxGeometry y="30" width="220" height="30" as="geometry" />
        </mxCell>
        <mxCell id="C-vyLk0tnHw3VtMMgP7b-25" value="PK" style="shape=partialRectangle;overflow=hidden;connectable=0;fillColor=#fff2cc;top=0;left=0;bottom=0;right=0;fontStyle=1;labelBorderColor=none;rounded=1;strokeColor=#d6b656;" parent="C-vyLk0tnHw3VtMMgP7b-24" vertex="1">
          <mxGeometry width="30" height="30" as="geometry" />
        </mxCell>
        <mxCell id="C-vyLk0tnHw3VtMMgP7b-26" value="id int NOT NULL " style="shape=partialRectangle;overflow=hidden;connectable=0;fillColor=#fff2cc;top=0;left=0;bottom=0;right=0;align=left;spacingLeft=6;fontStyle=5;labelBorderColor=none;rounded=1;strokeColor=#d6b656;" parent="C-vyLk0tnHw3VtMMgP7b-24" vertex="1">
          <mxGeometry x="30" width="190" height="30" as="geometry" />
        </mxCell>
        <mxCell id="C-vyLk0tnHw3VtMMgP7b-27" value="" style="shape=partialRectangle;collapsible=0;dropTarget=0;pointerEvents=0;fillColor=#fff2cc;points=[[0,0.5],[1,0.5]];portConstraint=eastwest;top=0;left=0;right=0;bottom=0;labelBorderColor=none;rounded=1;strokeColor=#d6b656;" parent="C-vyLk0tnHw3VtMMgP7b-23" vertex="1">
          <mxGeometry y="60" width="220" height="30" as="geometry" />
        </mxCell>
        <mxCell id="C-vyLk0tnHw3VtMMgP7b-28" value="" style="shape=partialRectangle;overflow=hidden;connectable=0;fillColor=#fff2cc;top=0;left=0;bottom=0;right=0;labelBorderColor=none;rounded=1;strokeColor=#d6b656;" parent="C-vyLk0tnHw3VtMMgP7b-27" vertex="1">
          <mxGeometry width="30" height="30" as="geometry" />
        </mxCell>
        <mxCell id="C-vyLk0tnHw3VtMMgP7b-29" value="name char(50) NOT NULL" style="shape=partialRectangle;overflow=hidden;connectable=0;fillColor=#fff2cc;top=0;left=0;bottom=0;right=0;align=left;spacingLeft=6;labelBorderColor=none;rounded=1;strokeColor=#d6b656;" parent="C-vyLk0tnHw3VtMMgP7b-27" vertex="1">
          <mxGeometry x="30" width="190" height="30" as="geometry" />
        </mxCell>
        <mxCell id="r2mLpPCgo3H6nydPWxPj-1" value="" style="shape=partialRectangle;collapsible=0;dropTarget=0;pointerEvents=0;fillColor=#fff2cc;points=[[0,0.5],[1,0.5]];portConstraint=eastwest;top=0;left=0;right=0;bottom=0;labelBorderColor=none;rounded=1;strokeColor=#d6b656;" parent="C-vyLk0tnHw3VtMMgP7b-23" vertex="1">
          <mxGeometry y="90" width="220" height="30" as="geometry" />
        </mxCell>
        <mxCell id="r2mLpPCgo3H6nydPWxPj-2" value="" style="shape=partialRectangle;overflow=hidden;connectable=0;fillColor=#fff2cc;top=0;left=0;bottom=0;right=0;labelBorderColor=none;rounded=1;strokeColor=#d6b656;" parent="r2mLpPCgo3H6nydPWxPj-1" vertex="1">
          <mxGeometry width="30" height="30" as="geometry" />
        </mxCell>
        <mxCell id="r2mLpPCgo3H6nydPWxPj-3" value="cpf char(11)" style="shape=partialRectangle;overflow=hidden;connectable=0;fillColor=#fff2cc;top=0;left=0;bottom=0;right=0;align=left;spacingLeft=6;labelBorderColor=none;rounded=1;strokeColor=#d6b656;" parent="r2mLpPCgo3H6nydPWxPj-1" vertex="1">
          <mxGeometry x="30" width="190" height="30" as="geometry" />
        </mxCell>
        <mxCell id="r2mLpPCgo3H6nydPWxPj-4" value="" style="shape=partialRectangle;collapsible=0;dropTarget=0;pointerEvents=0;fillColor=#fff2cc;points=[[0,0.5],[1,0.5]];portConstraint=eastwest;top=0;left=0;right=0;bottom=0;labelBorderColor=none;rounded=1;strokeColor=#d6b656;" parent="C-vyLk0tnHw3VtMMgP7b-23" vertex="1">
          <mxGeometry y="120" width="220" height="30" as="geometry" />
        </mxCell>
        <mxCell id="r2mLpPCgo3H6nydPWxPj-5" value="" style="shape=partialRectangle;overflow=hidden;connectable=0;fillColor=#fff2cc;top=0;left=0;bottom=0;right=0;labelBorderColor=none;rounded=1;strokeColor=#d6b656;" parent="r2mLpPCgo3H6nydPWxPj-4" vertex="1">
          <mxGeometry width="30" height="30" as="geometry" />
        </mxCell>
        <mxCell id="r2mLpPCgo3H6nydPWxPj-6" value="phone char(11) NOT NULL" style="shape=partialRectangle;overflow=hidden;connectable=0;fillColor=#fff2cc;top=0;left=0;bottom=0;right=0;align=left;spacingLeft=6;labelBorderColor=none;rounded=1;strokeColor=#d6b656;" parent="r2mLpPCgo3H6nydPWxPj-4" vertex="1">
          <mxGeometry x="30" width="190" height="30" as="geometry" />
        </mxCell>
        <mxCell id="r2mLpPCgo3H6nydPWxPj-7" value="" style="shape=partialRectangle;collapsible=0;dropTarget=0;pointerEvents=0;fillColor=#fff2cc;points=[[0,0.5],[1,0.5]];portConstraint=eastwest;top=0;left=0;right=0;bottom=0;labelBorderColor=none;rounded=1;strokeColor=#d6b656;" parent="C-vyLk0tnHw3VtMMgP7b-23" vertex="1">
          <mxGeometry y="150" width="220" height="30" as="geometry" />
        </mxCell>
        <mxCell id="r2mLpPCgo3H6nydPWxPj-8" value="" style="shape=partialRectangle;overflow=hidden;connectable=0;fillColor=#fff2cc;top=0;left=0;bottom=0;right=0;labelBorderColor=none;rounded=1;strokeColor=#d6b656;" parent="r2mLpPCgo3H6nydPWxPj-7" vertex="1">
          <mxGeometry width="30" height="30" as="geometry" />
        </mxCell>
        <mxCell id="r2mLpPCgo3H6nydPWxPj-9" value="email char(50) NOT NULL" style="shape=partialRectangle;overflow=hidden;connectable=0;fillColor=#fff2cc;top=0;left=0;bottom=0;right=0;align=left;spacingLeft=6;labelBorderColor=none;rounded=1;strokeColor=#d6b656;" parent="r2mLpPCgo3H6nydPWxPj-7" vertex="1">
          <mxGeometry x="30" width="190" height="30" as="geometry" />
        </mxCell>
        <mxCell id="r2mLpPCgo3H6nydPWxPj-90" style="edgeStyle=orthogonalEdgeStyle;rounded=1;orthogonalLoop=1;jettySize=auto;html=1;exitX=1;exitY=0.5;exitDx=0;exitDy=0;entryX=0;entryY=0.5;entryDx=0;entryDy=0;startArrow=ERmany;startFill=0;startSize=12;endArrow=ERmany;endFill=0;endSize=12;fillColor=#fff2cc;strokeColor=#d6b656;" parent="1" source="GytPN-wBxECgcy7hrlEQ-79" target="GytPN-wBxECgcy7hrlEQ-36" edge="1">
          <mxGeometry relative="1" as="geometry" />
        </mxCell>
        <mxCell id="GytPN-wBxECgcy7hrlEQ-15" value="Workshops" style="shape=table;startSize=30;container=1;collapsible=1;childLayout=tableLayout;fixedRows=1;rowLines=0;fontStyle=1;align=center;resizeLast=1;labelBorderColor=none;rounded=1;fillColor=#fff2cc;strokeColor=#d6b656;" parent="1" vertex="1">
          <mxGeometry x="580" y="-340" width="250" height="300" as="geometry" />
        </mxCell>
        <mxCell id="GytPN-wBxECgcy7hrlEQ-16" value="" style="shape=partialRectangle;collapsible=0;dropTarget=0;pointerEvents=0;fillColor=#fff2cc;points=[[0,0.5],[1,0.5]];portConstraint=eastwest;top=0;left=0;right=0;bottom=1;labelBorderColor=none;rounded=1;strokeColor=#d6b656;" parent="GytPN-wBxECgcy7hrlEQ-15" vertex="1">
          <mxGeometry y="30" width="250" height="30" as="geometry" />
        </mxCell>
        <mxCell id="GytPN-wBxECgcy7hrlEQ-17" value="PK" style="shape=partialRectangle;overflow=hidden;connectable=0;fillColor=#fff2cc;top=0;left=0;bottom=0;right=0;fontStyle=1;labelBorderColor=none;rounded=1;strokeColor=#d6b656;" parent="GytPN-wBxECgcy7hrlEQ-16" vertex="1">
          <mxGeometry width="30" height="30" as="geometry" />
        </mxCell>
        <mxCell id="GytPN-wBxECgcy7hrlEQ-18" value="id int NOT NULL " style="shape=partialRectangle;overflow=hidden;connectable=0;fillColor=#fff2cc;top=0;left=0;bottom=0;right=0;align=left;spacingLeft=6;fontStyle=5;labelBorderColor=none;rounded=1;strokeColor=#d6b656;" parent="GytPN-wBxECgcy7hrlEQ-16" vertex="1">
          <mxGeometry x="30" width="220" height="30" as="geometry" />
        </mxCell>
        <mxCell id="3xXCg58mIov3dv1Vw5mf-4" value="" style="shape=partialRectangle;collapsible=0;dropTarget=0;pointerEvents=0;fillColor=#fff2cc;points=[[0,0.5],[1,0.5]];portConstraint=eastwest;top=0;left=0;right=0;bottom=0;labelBorderColor=none;rounded=1;strokeColor=#d6b656;" parent="GytPN-wBxECgcy7hrlEQ-15" vertex="1">
          <mxGeometry y="60" width="250" height="30" as="geometry" />
        </mxCell>
        <mxCell id="3xXCg58mIov3dv1Vw5mf-5" value="" style="shape=partialRectangle;overflow=hidden;connectable=0;fillColor=#fff2cc;top=0;left=0;bottom=0;right=0;labelBorderColor=none;rounded=1;strokeColor=#d6b656;" parent="3xXCg58mIov3dv1Vw5mf-4" vertex="1">
          <mxGeometry width="30" height="30" as="geometry" />
        </mxCell>
        <mxCell id="3xXCg58mIov3dv1Vw5mf-6" value="name char(50) NOT NULL" style="shape=partialRectangle;overflow=hidden;connectable=0;fillColor=#fff2cc;top=0;left=0;bottom=0;right=0;align=left;spacingLeft=6;labelBorderColor=none;rounded=1;strokeColor=#d6b656;" parent="3xXCg58mIov3dv1Vw5mf-4" vertex="1">
          <mxGeometry x="30" width="220" height="30" as="geometry" />
        </mxCell>
        <mxCell id="3xXCg58mIov3dv1Vw5mf-10" value="" style="shape=partialRectangle;collapsible=0;dropTarget=0;pointerEvents=0;fillColor=#fff2cc;points=[[0,0.5],[1,0.5]];portConstraint=eastwest;top=0;left=0;right=0;bottom=0;labelBorderColor=none;rounded=1;strokeColor=#d6b656;" parent="GytPN-wBxECgcy7hrlEQ-15" vertex="1">
          <mxGeometry y="90" width="250" height="30" as="geometry" />
        </mxCell>
        <mxCell id="3xXCg58mIov3dv1Vw5mf-11" value="" style="shape=partialRectangle;overflow=hidden;connectable=0;fillColor=#fff2cc;top=0;left=0;bottom=0;right=0;labelBorderColor=none;rounded=1;strokeColor=#d6b656;" parent="3xXCg58mIov3dv1Vw5mf-10" vertex="1">
          <mxGeometry width="30" height="30" as="geometry" />
        </mxCell>
        <mxCell id="3xXCg58mIov3dv1Vw5mf-12" value="cnpj char(14) NOT NULL" style="shape=partialRectangle;overflow=hidden;connectable=0;fillColor=#fff2cc;top=0;left=0;bottom=0;right=0;align=left;spacingLeft=6;labelBorderColor=none;rounded=1;strokeColor=#d6b656;" parent="3xXCg58mIov3dv1Vw5mf-10" vertex="1">
          <mxGeometry x="30" width="220" height="30" as="geometry" />
        </mxCell>
        <mxCell id="3xXCg58mIov3dv1Vw5mf-13" value="" style="shape=partialRectangle;collapsible=0;dropTarget=0;pointerEvents=0;fillColor=#fff2cc;points=[[0,0.5],[1,0.5]];portConstraint=eastwest;top=0;left=0;right=0;bottom=0;labelBorderColor=none;rounded=1;strokeColor=#d6b656;" parent="GytPN-wBxECgcy7hrlEQ-15" vertex="1">
          <mxGeometry y="120" width="250" height="30" as="geometry" />
        </mxCell>
        <mxCell id="3xXCg58mIov3dv1Vw5mf-14" value="" style="shape=partialRectangle;overflow=hidden;connectable=0;fillColor=#fff2cc;top=0;left=0;bottom=0;right=0;labelBorderColor=none;rounded=1;strokeColor=#d6b656;" parent="3xXCg58mIov3dv1Vw5mf-13" vertex="1">
          <mxGeometry width="30" height="30" as="geometry" />
        </mxCell>
        <mxCell id="3xXCg58mIov3dv1Vw5mf-15" value="cellphone char(11) NOT NULL" style="shape=partialRectangle;overflow=hidden;connectable=0;fillColor=#fff2cc;top=0;left=0;bottom=0;right=0;align=left;spacingLeft=6;labelBorderColor=none;rounded=1;strokeColor=#d6b656;" parent="3xXCg58mIov3dv1Vw5mf-13" vertex="1">
          <mxGeometry x="30" width="220" height="30" as="geometry" />
        </mxCell>
        <mxCell id="3xXCg58mIov3dv1Vw5mf-16" value="" style="shape=partialRectangle;collapsible=0;dropTarget=0;pointerEvents=0;fillColor=#fff2cc;points=[[0,0.5],[1,0.5]];portConstraint=eastwest;top=0;left=0;right=0;bottom=0;labelBorderColor=none;rounded=1;strokeColor=#d6b656;" parent="GytPN-wBxECgcy7hrlEQ-15" vertex="1">
          <mxGeometry y="150" width="250" height="30" as="geometry" />
        </mxCell>
        <mxCell id="3xXCg58mIov3dv1Vw5mf-17" value="" style="shape=partialRectangle;overflow=hidden;connectable=0;fillColor=#fff2cc;top=0;left=0;bottom=0;right=0;labelBorderColor=none;rounded=1;strokeColor=#d6b656;" parent="3xXCg58mIov3dv1Vw5mf-16" vertex="1">
          <mxGeometry width="30" height="30" as="geometry" />
        </mxCell>
        <mxCell id="3xXCg58mIov3dv1Vw5mf-18" value="phone char(10)" style="shape=partialRectangle;overflow=hidden;connectable=0;fillColor=#fff2cc;top=0;left=0;bottom=0;right=0;align=left;spacingLeft=6;labelBorderColor=none;rounded=1;strokeColor=#d6b656;" parent="3xXCg58mIov3dv1Vw5mf-16" vertex="1">
          <mxGeometry x="30" width="220" height="30" as="geometry" />
        </mxCell>
        <mxCell id="3xXCg58mIov3dv1Vw5mf-7" value="" style="shape=partialRectangle;collapsible=0;dropTarget=0;pointerEvents=0;fillColor=#fff2cc;points=[[0,0.5],[1,0.5]];portConstraint=eastwest;top=0;left=0;right=0;bottom=0;labelBorderColor=none;rounded=1;strokeColor=#d6b656;" parent="GytPN-wBxECgcy7hrlEQ-15" vertex="1">
          <mxGeometry y="180" width="250" height="30" as="geometry" />
        </mxCell>
        <mxCell id="3xXCg58mIov3dv1Vw5mf-8" value="" style="shape=partialRectangle;overflow=hidden;connectable=0;fillColor=#fff2cc;top=0;left=0;bottom=0;right=0;labelBorderColor=none;rounded=1;strokeColor=#d6b656;" parent="3xXCg58mIov3dv1Vw5mf-7" vertex="1">
          <mxGeometry width="30" height="30" as="geometry" />
        </mxCell>
        <mxCell id="3xXCg58mIov3dv1Vw5mf-9" value="email char(50) NOT NULL" style="shape=partialRectangle;overflow=hidden;connectable=0;fillColor=#fff2cc;top=0;left=0;bottom=0;right=0;align=left;spacingLeft=6;labelBorderColor=none;rounded=1;strokeColor=#d6b656;" parent="3xXCg58mIov3dv1Vw5mf-7" vertex="1">
          <mxGeometry x="30" width="220" height="30" as="geometry" />
        </mxCell>
        <mxCell id="GytPN-wBxECgcy7hrlEQ-22" value="" style="shape=partialRectangle;collapsible=0;dropTarget=0;pointerEvents=0;fillColor=#fff2cc;points=[[0,0.5],[1,0.5]];portConstraint=eastwest;top=0;left=0;right=0;bottom=0;labelBorderColor=none;rounded=1;strokeColor=#d6b656;" parent="GytPN-wBxECgcy7hrlEQ-15" vertex="1">
          <mxGeometry y="210" width="250" height="30" as="geometry" />
        </mxCell>
        <mxCell id="GytPN-wBxECgcy7hrlEQ-23" value="FK" style="shape=partialRectangle;overflow=hidden;connectable=0;fillColor=#fff2cc;top=0;left=0;bottom=0;right=0;labelBorderColor=none;rounded=1;strokeColor=#d6b656;" parent="GytPN-wBxECgcy7hrlEQ-22" vertex="1">
          <mxGeometry width="30" height="30" as="geometry" />
        </mxCell>
        <mxCell id="GytPN-wBxECgcy7hrlEQ-24" value="address_id int NOT NULL" style="shape=partialRectangle;overflow=hidden;connectable=0;fillColor=#fff2cc;top=0;left=0;bottom=0;right=0;align=left;spacingLeft=6;labelBorderColor=none;rounded=1;strokeColor=#d6b656;" parent="GytPN-wBxECgcy7hrlEQ-22" vertex="1">
          <mxGeometry x="30" width="220" height="30" as="geometry" />
        </mxCell>
        <mxCell id="GytPN-wBxECgcy7hrlEQ-19" value="" style="shape=partialRectangle;collapsible=0;dropTarget=0;pointerEvents=0;fillColor=#fff2cc;points=[[0,0.5],[1,0.5]];portConstraint=eastwest;top=0;left=0;right=0;bottom=0;labelBorderColor=none;rounded=1;strokeColor=#d6b656;" parent="GytPN-wBxECgcy7hrlEQ-15" vertex="1">
          <mxGeometry y="240" width="250" height="30" as="geometry" />
        </mxCell>
        <mxCell id="GytPN-wBxECgcy7hrlEQ-20" value="" style="shape=partialRectangle;overflow=hidden;connectable=0;fillColor=#fff2cc;top=0;left=0;bottom=0;right=0;labelBorderColor=none;rounded=1;strokeColor=#d6b656;" parent="GytPN-wBxECgcy7hrlEQ-19" vertex="1">
          <mxGeometry width="30" height="30" as="geometry" />
        </mxCell>
        <mxCell id="GytPN-wBxECgcy7hrlEQ-21" value="" style="shape=partialRectangle;overflow=hidden;connectable=0;fillColor=#fff2cc;top=0;left=0;bottom=0;right=0;align=left;spacingLeft=6;labelBorderColor=none;rounded=1;strokeColor=#d6b656;" parent="GytPN-wBxECgcy7hrlEQ-19" vertex="1">
          <mxGeometry x="30" width="220" height="30" as="geometry" />
        </mxCell>
        <mxCell id="3xXCg58mIov3dv1Vw5mf-19" value="" style="shape=partialRectangle;collapsible=0;dropTarget=0;pointerEvents=0;fillColor=#fff2cc;points=[[0,0.5],[1,0.5]];portConstraint=eastwest;top=0;left=0;right=0;bottom=0;labelBorderColor=none;rounded=1;strokeColor=#d6b656;" parent="GytPN-wBxECgcy7hrlEQ-15" vertex="1">
          <mxGeometry y="270" width="250" height="30" as="geometry" />
        </mxCell>
        <mxCell id="3xXCg58mIov3dv1Vw5mf-20" value="" style="shape=partialRectangle;overflow=hidden;connectable=0;fillColor=#fff2cc;top=0;left=0;bottom=0;right=0;labelBorderColor=none;rounded=1;strokeColor=#d6b656;" parent="3xXCg58mIov3dv1Vw5mf-19" vertex="1">
          <mxGeometry width="30" height="30" as="geometry" />
        </mxCell>
        <mxCell id="3xXCg58mIov3dv1Vw5mf-21" value="" style="shape=partialRectangle;overflow=hidden;connectable=0;fillColor=#fff2cc;top=0;left=0;bottom=0;right=0;align=left;spacingLeft=6;labelBorderColor=none;rounded=1;strokeColor=#d6b656;" parent="3xXCg58mIov3dv1Vw5mf-19" vertex="1">
          <mxGeometry x="30" width="220" height="30" as="geometry" />
        </mxCell>
        <mxCell id="B7DI4YMN_xVC8xf2l_Bk-19" value="password char(50) NOT NULL" style="shape=partialRectangle;overflow=hidden;connectable=0;fillColor=#fff2cc;top=0;left=0;bottom=0;right=0;align=left;spacingLeft=6;labelBorderColor=none;rounded=1;strokeColor=#d6b656;" parent="1" vertex="1">
          <mxGeometry x="960" y="-290" width="190" height="30" as="geometry" />
        </mxCell>
        <mxCell id="B7DI4YMN_xVC8xf2l_Bk-20" value="" style="shape=partialRectangle;overflow=hidden;connectable=0;fillColor=#fff2cc;top=0;left=0;bottom=0;right=0;labelBorderColor=none;rounded=1;strokeColor=#d6b656;" parent="1" vertex="1">
          <mxGeometry x="930" y="-290" width="30" height="30" as="geometry" />
        </mxCell>
        <mxCell id="B7DI4YMN_xVC8xf2l_Bk-23" style="edgeStyle=orthogonalEdgeStyle;rounded=1;orthogonalLoop=1;jettySize=auto;html=1;labelBorderColor=none;endArrow=ERmany;endFill=0;startArrow=ERone;startFill=0;strokeWidth=1;endSize=12;startSize=12;fillColor=#fff2cc;strokeColor=#d6b656;exitX=0.5;exitY=0;exitDx=0;exitDy=0;entryX=0.5;entryY=0;entryDx=0;entryDy=0;" parent="1" source="GytPN-wBxECgcy7hrlEQ-25" target="B7DI4YMN_xVC8xf2l_Bk-3" edge="1">
          <mxGeometry relative="1" as="geometry">
            <mxPoint x="280" y="-495" as="sourcePoint" />
            <mxPoint x="-60" y="-340" as="targetPoint" />
          </mxGeometry>
        </mxCell>
        <mxCell id="B7DI4YMN_xVC8xf2l_Bk-24" value="address_id int NOT NULL" style="shape=partialRectangle;overflow=hidden;connectable=0;fillColor=#fff2cc;top=0;left=0;bottom=0;right=0;align=left;spacingLeft=6;labelBorderColor=none;rounded=1;strokeColor=#d6b656;" parent="1" vertex="1">
          <mxGeometry x="960" y="-260" width="190" height="30" as="geometry" />
        </mxCell>
        <mxCell id="B7DI4YMN_xVC8xf2l_Bk-25" value="FK" style="shape=partialRectangle;overflow=hidden;connectable=0;fillColor=#fff2cc;top=0;left=0;bottom=0;right=0;labelBorderColor=none;rounded=1;strokeColor=#d6b656;" parent="1" vertex="1">
          <mxGeometry x="930" y="-260" width="30" height="30" as="geometry" />
        </mxCell>
        <mxCell id="B7DI4YMN_xVC8xf2l_Bk-26" value="password char(50) NOT NULL" style="shape=partialRectangle;overflow=hidden;connectable=0;fillColor=#fff2cc;top=0;left=0;bottom=0;right=0;align=left;spacingLeft=6;labelBorderColor=none;rounded=1;strokeColor=#d6b656;" parent="1" vertex="1">
          <mxGeometry x="-200" y="20" width="190" height="30" as="geometry" />
        </mxCell>
        <mxCell id="B7DI4YMN_xVC8xf2l_Bk-27" value="address_id int NOT NULL" style="shape=partialRectangle;overflow=hidden;connectable=0;fillColor=#fff2cc;top=0;left=0;bottom=0;right=0;align=left;spacingLeft=6;labelBorderColor=none;rounded=1;strokeColor=#d6b656;" parent="1" vertex="1">
          <mxGeometry x="-200" y="50" width="190" height="30" as="geometry" />
        </mxCell>
        <mxCell id="B7DI4YMN_xVC8xf2l_Bk-28" value="" style="shape=partialRectangle;overflow=hidden;connectable=0;fillColor=#fff2cc;top=0;left=0;bottom=0;right=0;labelBorderColor=none;rounded=1;strokeColor=#d6b656;" parent="1" vertex="1">
          <mxGeometry x="-230" y="10" width="30" height="40" as="geometry" />
        </mxCell>
        <mxCell id="B7DI4YMN_xVC8xf2l_Bk-29" value="FK" style="shape=partialRectangle;overflow=hidden;connectable=0;fillColor=#fff2cc;top=0;left=0;bottom=0;right=0;labelBorderColor=none;rounded=1;strokeColor=#d6b656;" parent="1" vertex="1">
          <mxGeometry x="-230" y="50" width="30" height="30" as="geometry" />
        </mxCell>
        <mxCell id="GytPN-wBxECgcy7hrlEQ-25" value="Addresses" style="shape=table;startSize=30;container=1;collapsible=1;childLayout=tableLayout;fixedRows=1;rowLines=0;fontStyle=1;align=center;resizeLast=1;labelBorderColor=none;rounded=1;fillColor=#fff2cc;strokeColor=#d6b656;" parent="1" vertex="1">
          <mxGeometry x="220" y="-420" width="250" height="270" as="geometry" />
        </mxCell>
        <mxCell id="GytPN-wBxECgcy7hrlEQ-26" value="" style="shape=partialRectangle;collapsible=0;dropTarget=0;pointerEvents=0;fillColor=#fff2cc;points=[[0,0.5],[1,0.5]];portConstraint=eastwest;top=0;left=0;right=0;bottom=1;labelBorderColor=none;rounded=1;strokeColor=#d6b656;" parent="GytPN-wBxECgcy7hrlEQ-25" vertex="1">
          <mxGeometry y="30" width="250" height="30" as="geometry" />
        </mxCell>
        <mxCell id="GytPN-wBxECgcy7hrlEQ-27" value="PK" style="shape=partialRectangle;overflow=hidden;connectable=0;fillColor=#fff2cc;top=0;left=0;bottom=0;right=0;fontStyle=1;labelBorderColor=none;rounded=1;strokeColor=#d6b656;" parent="GytPN-wBxECgcy7hrlEQ-26" vertex="1">
          <mxGeometry width="30" height="30" as="geometry" />
        </mxCell>
        <mxCell id="GytPN-wBxECgcy7hrlEQ-28" value="id int NOT NULL " style="shape=partialRectangle;overflow=hidden;connectable=0;fillColor=#fff2cc;top=0;left=0;bottom=0;right=0;align=left;spacingLeft=6;fontStyle=5;labelBorderColor=none;rounded=1;strokeColor=#d6b656;" parent="GytPN-wBxECgcy7hrlEQ-26" vertex="1">
          <mxGeometry x="30" width="220" height="30" as="geometry" />
        </mxCell>
        <mxCell id="GytPN-wBxECgcy7hrlEQ-29" value="" style="shape=partialRectangle;collapsible=0;dropTarget=0;pointerEvents=0;fillColor=#fff2cc;points=[[0,0.5],[1,0.5]];portConstraint=eastwest;top=0;left=0;right=0;bottom=0;labelBorderColor=none;rounded=1;strokeColor=#d6b656;" parent="GytPN-wBxECgcy7hrlEQ-25" vertex="1">
          <mxGeometry y="60" width="250" height="30" as="geometry" />
        </mxCell>
        <mxCell id="GytPN-wBxECgcy7hrlEQ-30" value="" style="shape=partialRectangle;overflow=hidden;connectable=0;fillColor=#fff2cc;top=0;left=0;bottom=0;right=0;labelBorderColor=none;rounded=1;strokeColor=#d6b656;" parent="GytPN-wBxECgcy7hrlEQ-29" vertex="1">
          <mxGeometry width="30" height="30" as="geometry" />
        </mxCell>
        <mxCell id="GytPN-wBxECgcy7hrlEQ-31" value="street char(50) NOT NULL" style="shape=partialRectangle;overflow=hidden;connectable=0;fillColor=#fff2cc;top=0;left=0;bottom=0;right=0;align=left;spacingLeft=6;labelBorderColor=none;rounded=1;strokeColor=#d6b656;" parent="GytPN-wBxECgcy7hrlEQ-29" vertex="1">
          <mxGeometry x="30" width="220" height="30" as="geometry" />
        </mxCell>
        <mxCell id="r2mLpPCgo3H6nydPWxPj-60" value="" style="shape=partialRectangle;collapsible=0;dropTarget=0;pointerEvents=0;fillColor=#fff2cc;points=[[0,0.5],[1,0.5]];portConstraint=eastwest;top=0;left=0;right=0;bottom=0;labelBorderColor=none;rounded=1;strokeColor=#d6b656;" parent="GytPN-wBxECgcy7hrlEQ-25" vertex="1">
          <mxGeometry y="90" width="250" height="30" as="geometry" />
        </mxCell>
        <mxCell id="r2mLpPCgo3H6nydPWxPj-61" value="" style="shape=partialRectangle;overflow=hidden;connectable=0;fillColor=#fff2cc;top=0;left=0;bottom=0;right=0;labelBorderColor=none;rounded=1;strokeColor=#d6b656;" parent="r2mLpPCgo3H6nydPWxPj-60" vertex="1">
          <mxGeometry width="30" height="30" as="geometry" />
        </mxCell>
        <mxCell id="r2mLpPCgo3H6nydPWxPj-62" value="number char(8) NOT NULL" style="shape=partialRectangle;overflow=hidden;connectable=0;fillColor=#fff2cc;top=0;left=0;bottom=0;right=0;align=left;spacingLeft=6;labelBorderColor=none;rounded=1;strokeColor=#d6b656;" parent="r2mLpPCgo3H6nydPWxPj-60" vertex="1">
          <mxGeometry x="30" width="220" height="30" as="geometry" />
        </mxCell>
        <mxCell id="GytPN-wBxECgcy7hrlEQ-32" value="" style="shape=partialRectangle;collapsible=0;dropTarget=0;pointerEvents=0;fillColor=#fff2cc;points=[[0,0.5],[1,0.5]];portConstraint=eastwest;top=0;left=0;right=0;bottom=0;labelBorderColor=none;rounded=1;strokeColor=#d6b656;" parent="GytPN-wBxECgcy7hrlEQ-25" vertex="1">
          <mxGeometry y="120" width="250" height="30" as="geometry" />
        </mxCell>
        <mxCell id="GytPN-wBxECgcy7hrlEQ-33" value="" style="shape=partialRectangle;overflow=hidden;connectable=0;fillColor=#fff2cc;top=0;left=0;bottom=0;right=0;labelBorderColor=none;rounded=1;strokeColor=#d6b656;" parent="GytPN-wBxECgcy7hrlEQ-32" vertex="1">
          <mxGeometry width="30" height="30" as="geometry" />
        </mxCell>
        <mxCell id="GytPN-wBxECgcy7hrlEQ-34" value="neighborhood char(50) NOT NULL" style="shape=partialRectangle;overflow=hidden;connectable=0;fillColor=#fff2cc;top=0;left=0;bottom=0;right=0;align=left;spacingLeft=6;labelBorderColor=none;rounded=1;strokeColor=#d6b656;" parent="GytPN-wBxECgcy7hrlEQ-32" vertex="1">
          <mxGeometry x="30" width="220" height="30" as="geometry" />
        </mxCell>
        <mxCell id="B7DI4YMN_xVC8xf2l_Bk-30" value="" style="shape=partialRectangle;collapsible=0;dropTarget=0;pointerEvents=0;fillColor=#fff2cc;points=[[0,0.5],[1,0.5]];portConstraint=eastwest;top=0;left=0;right=0;bottom=0;labelBorderColor=none;rounded=1;strokeColor=#d6b656;" parent="1" vertex="1">
          <mxGeometry x="220" y="-270" width="250" height="30" as="geometry" />
        </mxCell>
        <mxCell id="B7DI4YMN_xVC8xf2l_Bk-31" value="" style="shape=partialRectangle;overflow=hidden;connectable=0;fillColor=#fff2cc;top=0;left=0;bottom=0;right=0;labelBorderColor=none;rounded=1;strokeColor=#d6b656;" parent="B7DI4YMN_xVC8xf2l_Bk-30" vertex="1">
          <mxGeometry width="30" height="30" as="geometry" />
        </mxCell>
        <mxCell id="B7DI4YMN_xVC8xf2l_Bk-32" value="complement char(50)" style="shape=partialRectangle;overflow=hidden;connectable=0;fillColor=#fff2cc;top=0;left=0;bottom=0;right=0;align=left;spacingLeft=6;labelBorderColor=none;rounded=1;strokeColor=#d6b656;" parent="B7DI4YMN_xVC8xf2l_Bk-30" vertex="1">
          <mxGeometry x="30" width="220" height="30" as="geometry" />
        </mxCell>
        <mxCell id="B7DI4YMN_xVC8xf2l_Bk-33" value="" style="shape=partialRectangle;collapsible=0;dropTarget=0;pointerEvents=0;fillColor=#fff2cc;points=[[0,0.5],[1,0.5]];portConstraint=eastwest;top=0;left=0;right=0;bottom=0;labelBorderColor=none;rounded=1;strokeColor=#d6b656;" parent="1" vertex="1">
          <mxGeometry x="220" y="-240" width="250" height="30" as="geometry" />
        </mxCell>
        <mxCell id="B7DI4YMN_xVC8xf2l_Bk-34" value="" style="shape=partialRectangle;overflow=hidden;connectable=0;fillColor=#fff2cc;top=0;left=0;bottom=0;right=0;labelBorderColor=none;rounded=1;strokeColor=#d6b656;" parent="B7DI4YMN_xVC8xf2l_Bk-33" vertex="1">
          <mxGeometry width="30" height="30" as="geometry" />
        </mxCell>
        <mxCell id="B7DI4YMN_xVC8xf2l_Bk-35" value="city char(50) NOT NULL" style="shape=partialRectangle;overflow=hidden;connectable=0;fillColor=#fff2cc;top=0;left=0;bottom=0;right=0;align=left;spacingLeft=6;labelBorderColor=none;rounded=1;strokeColor=#d6b656;" parent="B7DI4YMN_xVC8xf2l_Bk-33" vertex="1">
          <mxGeometry x="30" width="220" height="30" as="geometry" />
        </mxCell>
        <mxCell id="B7DI4YMN_xVC8xf2l_Bk-36" value="" style="shape=partialRectangle;collapsible=0;dropTarget=0;pointerEvents=0;fillColor=#fff2cc;points=[[0,0.5],[1,0.5]];portConstraint=eastwest;top=0;left=0;right=0;bottom=0;labelBorderColor=none;rounded=1;strokeColor=#d6b656;" parent="1" vertex="1">
          <mxGeometry x="220" y="-210" width="250" height="30" as="geometry" />
        </mxCell>
        <mxCell id="B7DI4YMN_xVC8xf2l_Bk-37" value="" style="shape=partialRectangle;overflow=hidden;connectable=0;fillColor=#fff2cc;top=0;left=0;bottom=0;right=0;labelBorderColor=none;rounded=1;strokeColor=#d6b656;" parent="B7DI4YMN_xVC8xf2l_Bk-36" vertex="1">
          <mxGeometry width="30" height="30" as="geometry" />
        </mxCell>
        <mxCell id="B7DI4YMN_xVC8xf2l_Bk-38" value="state char(50) NOT NULL" style="shape=partialRectangle;overflow=hidden;connectable=0;fillColor=#fff2cc;top=0;left=0;bottom=0;right=0;align=left;spacingLeft=6;labelBorderColor=none;rounded=1;strokeColor=#d6b656;" parent="B7DI4YMN_xVC8xf2l_Bk-36" vertex="1">
          <mxGeometry x="30" width="220" height="30" as="geometry" />
        </mxCell>
        <mxCell id="B7DI4YMN_xVC8xf2l_Bk-39" value="state char(50) NOT NULL" style="shape=partialRectangle;overflow=hidden;connectable=0;fillColor=#fff2cc;top=0;left=0;bottom=0;right=0;align=left;spacingLeft=6;labelBorderColor=none;rounded=1;strokeColor=#d6b656;" parent="1" vertex="1">
          <mxGeometry x="250" y="-180" width="220" height="30" as="geometry" />
        </mxCell>
        <mxCell id="B7DI4YMN_xVC8xf2l_Bk-40" value="" style="shape=partialRectangle;collapsible=0;dropTarget=0;pointerEvents=0;fillColor=#fff2cc;points=[[0,0.5],[1,0.5]];portConstraint=eastwest;top=0;left=0;right=0;bottom=0;labelBorderColor=none;rounded=1;strokeColor=#d6b656;" parent="1" vertex="1">
          <mxGeometry x="220" y="-180" width="250" height="30" as="geometry" />
        </mxCell>
        <mxCell id="B7DI4YMN_xVC8xf2l_Bk-41" value="" style="shape=partialRectangle;overflow=hidden;connectable=0;fillColor=#fff2cc;top=0;left=0;bottom=0;right=0;labelBorderColor=none;rounded=1;strokeColor=#d6b656;" parent="B7DI4YMN_xVC8xf2l_Bk-40" vertex="1">
          <mxGeometry width="30" height="30" as="geometry" />
        </mxCell>
        <mxCell id="B7DI4YMN_xVC8xf2l_Bk-42" value="zip_code char(11) NOT NULL" style="shape=partialRectangle;overflow=hidden;connectable=0;fillColor=#fff2cc;top=0;left=0;bottom=0;right=0;align=left;spacingLeft=6;labelBorderColor=none;rounded=1;strokeColor=#d6b656;" parent="B7DI4YMN_xVC8xf2l_Bk-40" vertex="1">
          <mxGeometry x="30" width="220" height="30" as="geometry" />
        </mxCell>
        <mxCell id="C-vyLk0tnHw3VtMMgP7b-2" value="Orders" style="shape=table;startSize=30;container=1;collapsible=1;childLayout=tableLayout;fixedRows=1;rowLines=0;fontStyle=1;align=center;resizeLast=1;labelBorderColor=none;rounded=1;fillColor=#fff2cc;strokeColor=#d6b656;" parent="1" vertex="1">
          <mxGeometry x="220" y="-90" width="250" height="210" as="geometry" />
        </mxCell>
        <mxCell id="C-vyLk0tnHw3VtMMgP7b-3" value="" style="shape=partialRectangle;collapsible=0;dropTarget=0;pointerEvents=0;fillColor=#fff2cc;points=[[0,0.5],[1,0.5]];portConstraint=eastwest;top=0;left=0;right=0;bottom=1;labelBorderColor=none;rounded=1;strokeColor=#d6b656;" parent="C-vyLk0tnHw3VtMMgP7b-2" vertex="1">
          <mxGeometry y="30" width="250" height="30" as="geometry" />
        </mxCell>
        <mxCell id="C-vyLk0tnHw3VtMMgP7b-4" value="PK" style="shape=partialRectangle;overflow=hidden;connectable=0;fillColor=#fff2cc;top=0;left=0;bottom=0;right=0;fontStyle=1;labelBorderColor=none;rounded=1;strokeColor=#d6b656;" parent="C-vyLk0tnHw3VtMMgP7b-3" vertex="1">
          <mxGeometry width="30" height="30" as="geometry" />
        </mxCell>
        <mxCell id="C-vyLk0tnHw3VtMMgP7b-5" value="id int NOT NULL " style="shape=partialRectangle;overflow=hidden;connectable=0;fillColor=#fff2cc;top=0;left=0;bottom=0;right=0;align=left;spacingLeft=6;fontStyle=5;labelBorderColor=none;rounded=1;strokeColor=#d6b656;" parent="C-vyLk0tnHw3VtMMgP7b-3" vertex="1">
          <mxGeometry x="30" width="220" height="30" as="geometry" />
        </mxCell>
        <mxCell id="C-vyLk0tnHw3VtMMgP7b-6" value="" style="shape=partialRectangle;collapsible=0;dropTarget=0;pointerEvents=0;fillColor=#fff2cc;points=[[0,0.5],[1,0.5]];portConstraint=eastwest;top=0;left=0;right=0;bottom=0;labelBorderColor=none;rounded=1;strokeColor=#d6b656;" parent="C-vyLk0tnHw3VtMMgP7b-2" vertex="1">
          <mxGeometry y="60" width="250" height="30" as="geometry" />
        </mxCell>
        <mxCell id="C-vyLk0tnHw3VtMMgP7b-7" value="FK" style="shape=partialRectangle;overflow=hidden;connectable=0;fillColor=#fff2cc;top=0;left=0;bottom=0;right=0;labelBorderColor=none;rounded=1;strokeColor=#d6b656;" parent="C-vyLk0tnHw3VtMMgP7b-6" vertex="1">
          <mxGeometry width="30" height="30" as="geometry" />
        </mxCell>
        <mxCell id="C-vyLk0tnHw3VtMMgP7b-8" value="customer_id int NOT NULL" style="shape=partialRectangle;overflow=hidden;connectable=0;fillColor=#fff2cc;top=0;left=0;bottom=0;right=0;align=left;spacingLeft=6;labelBorderColor=none;rounded=1;strokeColor=#d6b656;" parent="C-vyLk0tnHw3VtMMgP7b-6" vertex="1">
          <mxGeometry x="30" width="220" height="30" as="geometry" />
        </mxCell>
        <mxCell id="C-vyLk0tnHw3VtMMgP7b-9" value="" style="shape=partialRectangle;collapsible=0;dropTarget=0;pointerEvents=0;fillColor=#fff2cc;points=[[0,0.5],[1,0.5]];portConstraint=eastwest;top=0;left=0;right=0;bottom=0;labelBorderColor=none;rounded=1;strokeColor=#d6b656;" parent="C-vyLk0tnHw3VtMMgP7b-2" vertex="1">
          <mxGeometry y="90" width="250" height="30" as="geometry" />
        </mxCell>
        <mxCell id="C-vyLk0tnHw3VtMMgP7b-10" value="FK" style="shape=partialRectangle;overflow=hidden;connectable=0;fillColor=#fff2cc;top=0;left=0;bottom=0;right=0;labelBorderColor=none;rounded=1;strokeColor=#d6b656;" parent="C-vyLk0tnHw3VtMMgP7b-9" vertex="1">
          <mxGeometry width="30" height="30" as="geometry" />
        </mxCell>
        <mxCell id="C-vyLk0tnHw3VtMMgP7b-11" value="workshop_id int NOT NULL" style="shape=partialRectangle;overflow=hidden;connectable=0;fillColor=#fff2cc;top=0;left=0;bottom=0;right=0;align=left;spacingLeft=6;labelBorderColor=none;rounded=1;strokeColor=#d6b656;" parent="C-vyLk0tnHw3VtMMgP7b-9" vertex="1">
          <mxGeometry x="30" width="220" height="30" as="geometry" />
        </mxCell>
        <mxCell id="r2mLpPCgo3H6nydPWxPj-10" value="" style="shape=partialRectangle;collapsible=0;dropTarget=0;pointerEvents=0;fillColor=#fff2cc;points=[[0,0.5],[1,0.5]];portConstraint=eastwest;top=0;left=0;right=0;bottom=0;labelBorderColor=none;rounded=1;strokeColor=#d6b656;" parent="C-vyLk0tnHw3VtMMgP7b-2" vertex="1">
          <mxGeometry y="120" width="250" height="30" as="geometry" />
        </mxCell>
        <mxCell id="r2mLpPCgo3H6nydPWxPj-11" value="FK" style="shape=partialRectangle;overflow=hidden;connectable=0;fillColor=#fff2cc;top=0;left=0;bottom=0;right=0;labelBorderColor=none;rounded=1;strokeColor=#d6b656;" parent="r2mLpPCgo3H6nydPWxPj-10" vertex="1">
          <mxGeometry width="30" height="30" as="geometry" />
        </mxCell>
        <mxCell id="r2mLpPCgo3H6nydPWxPj-12" value="item_id int NOT NULL" style="shape=partialRectangle;overflow=hidden;connectable=0;fillColor=#fff2cc;top=0;left=0;bottom=0;right=0;align=left;spacingLeft=6;labelBorderColor=none;rounded=1;strokeColor=#d6b656;" parent="r2mLpPCgo3H6nydPWxPj-10" vertex="1">
          <mxGeometry x="30" width="220" height="30" as="geometry" />
        </mxCell>
        <mxCell id="r2mLpPCgo3H6nydPWxPj-13" value="" style="shape=partialRectangle;collapsible=0;dropTarget=0;pointerEvents=0;fillColor=#fff2cc;points=[[0,0.5],[1,0.5]];portConstraint=eastwest;top=0;left=0;right=0;bottom=0;labelBorderColor=none;rounded=1;strokeColor=#d6b656;" parent="C-vyLk0tnHw3VtMMgP7b-2" vertex="1">
          <mxGeometry y="150" width="250" height="30" as="geometry" />
        </mxCell>
        <mxCell id="r2mLpPCgo3H6nydPWxPj-14" value="" style="shape=partialRectangle;overflow=hidden;connectable=0;fillColor=#fff2cc;top=0;left=0;bottom=0;right=0;labelBorderColor=none;rounded=1;strokeColor=#d6b656;" parent="r2mLpPCgo3H6nydPWxPj-13" vertex="1">
          <mxGeometry width="30" height="30" as="geometry" />
        </mxCell>
        <mxCell id="r2mLpPCgo3H6nydPWxPj-15" value="" style="shape=partialRectangle;overflow=hidden;connectable=0;fillColor=#fff2cc;top=0;left=0;bottom=0;right=0;align=left;spacingLeft=6;labelBorderColor=none;rounded=1;strokeColor=#d6b656;" parent="r2mLpPCgo3H6nydPWxPj-13" vertex="1">
          <mxGeometry x="30" width="220" height="30" as="geometry" />
        </mxCell>
        <mxCell id="r2mLpPCgo3H6nydPWxPj-16" value="" style="shape=partialRectangle;collapsible=0;dropTarget=0;pointerEvents=0;fillColor=#fff2cc;points=[[0,0.5],[1,0.5]];portConstraint=eastwest;top=0;left=0;right=0;bottom=0;labelBorderColor=none;rounded=1;strokeColor=#d6b656;" parent="C-vyLk0tnHw3VtMMgP7b-2" vertex="1">
          <mxGeometry y="180" width="250" height="30" as="geometry" />
        </mxCell>
        <mxCell id="r2mLpPCgo3H6nydPWxPj-17" value="" style="shape=partialRectangle;overflow=hidden;connectable=0;fillColor=#fff2cc;top=0;left=0;bottom=0;right=0;labelBorderColor=none;rounded=1;strokeColor=#d6b656;" parent="r2mLpPCgo3H6nydPWxPj-16" vertex="1">
          <mxGeometry width="30" height="30" as="geometry" />
        </mxCell>
        <mxCell id="r2mLpPCgo3H6nydPWxPj-18" value="" style="shape=partialRectangle;overflow=hidden;connectable=0;fillColor=#fff2cc;top=0;left=0;bottom=0;right=0;align=left;spacingLeft=6;labelBorderColor=none;rounded=1;strokeColor=#d6b656;" parent="r2mLpPCgo3H6nydPWxPj-16" vertex="1">
          <mxGeometry x="30" width="220" height="30" as="geometry" />
        </mxCell>
        <mxCell id="5-2vUzAHZTlrWetlaagz-2" value="workshop_id int NOT NULL" style="shape=partialRectangle;overflow=hidden;connectable=0;fillColor=#fff2cc;top=0;left=0;bottom=0;right=0;align=left;spacingLeft=6;labelBorderColor=none;rounded=1;strokeColor=#d6b656;" vertex="1" parent="1">
          <mxGeometry x="960" y="-230" width="190" height="30" as="geometry" />
        </mxCell>
        <mxCell id="5-2vUzAHZTlrWetlaagz-3" value="FK" style="shape=partialRectangle;overflow=hidden;connectable=0;fillColor=#fff2cc;top=0;left=0;bottom=0;right=0;labelBorderColor=none;rounded=1;strokeColor=#d6b656;" vertex="1" parent="1">
          <mxGeometry x="930" y="-230" width="30" height="30" as="geometry" />
        </mxCell>
        <mxCell id="B7DI4YMN_xVC8xf2l_Bk-3" value="Mechanicals" style="shape=table;startSize=30;container=1;collapsible=1;childLayout=tableLayout;fixedRows=1;rowLines=0;fontStyle=1;align=center;resizeLast=1;labelBorderColor=none;rounded=1;fillColor=#fff2cc;strokeColor=#d6b656;" parent="1" vertex="1">
          <mxGeometry x="930" y="-470" width="220" height="270" as="geometry" />
        </mxCell>
        <mxCell id="B7DI4YMN_xVC8xf2l_Bk-4" value="" style="shape=partialRectangle;collapsible=0;dropTarget=0;pointerEvents=0;fillColor=#fff2cc;points=[[0,0.5],[1,0.5]];portConstraint=eastwest;top=0;left=0;right=0;bottom=1;labelBorderColor=none;rounded=1;strokeColor=#d6b656;" parent="B7DI4YMN_xVC8xf2l_Bk-3" vertex="1">
          <mxGeometry y="30" width="220" height="30" as="geometry" />
        </mxCell>
        <mxCell id="B7DI4YMN_xVC8xf2l_Bk-5" value="PK" style="shape=partialRectangle;overflow=hidden;connectable=0;fillColor=#fff2cc;top=0;left=0;bottom=0;right=0;fontStyle=1;labelBorderColor=none;rounded=1;strokeColor=#d6b656;" parent="B7DI4YMN_xVC8xf2l_Bk-4" vertex="1">
          <mxGeometry width="30" height="30" as="geometry" />
        </mxCell>
        <mxCell id="B7DI4YMN_xVC8xf2l_Bk-6" value="id int NOT NULL " style="shape=partialRectangle;overflow=hidden;connectable=0;fillColor=#fff2cc;top=0;left=0;bottom=0;right=0;align=left;spacingLeft=6;fontStyle=5;labelBorderColor=none;rounded=1;strokeColor=#d6b656;" parent="B7DI4YMN_xVC8xf2l_Bk-4" vertex="1">
          <mxGeometry x="30" width="190" height="30" as="geometry" />
        </mxCell>
        <mxCell id="B7DI4YMN_xVC8xf2l_Bk-10" value="" style="shape=partialRectangle;collapsible=0;dropTarget=0;pointerEvents=0;fillColor=#fff2cc;points=[[0,0.5],[1,0.5]];portConstraint=eastwest;top=0;left=0;right=0;bottom=0;labelBorderColor=none;rounded=1;strokeColor=#d6b656;" parent="B7DI4YMN_xVC8xf2l_Bk-3" vertex="1">
          <mxGeometry y="60" width="220" height="30" as="geometry" />
        </mxCell>
        <mxCell id="B7DI4YMN_xVC8xf2l_Bk-11" value="" style="shape=partialRectangle;overflow=hidden;connectable=0;fillColor=#fff2cc;top=0;left=0;bottom=0;right=0;labelBorderColor=none;rounded=1;strokeColor=#d6b656;" parent="B7DI4YMN_xVC8xf2l_Bk-10" vertex="1">
          <mxGeometry width="30" height="30" as="geometry" />
        </mxCell>
        <mxCell id="B7DI4YMN_xVC8xf2l_Bk-12" value="cpf char(11)" style="shape=partialRectangle;overflow=hidden;connectable=0;fillColor=#fff2cc;top=0;left=0;bottom=0;right=0;align=left;spacingLeft=6;labelBorderColor=none;rounded=1;strokeColor=#d6b656;" parent="B7DI4YMN_xVC8xf2l_Bk-10" vertex="1">
          <mxGeometry x="30" width="190" height="30" as="geometry" />
        </mxCell>
        <mxCell id="B7DI4YMN_xVC8xf2l_Bk-7" value="" style="shape=partialRectangle;collapsible=0;dropTarget=0;pointerEvents=0;fillColor=#fff2cc;points=[[0,0.5],[1,0.5]];portConstraint=eastwest;top=0;left=0;right=0;bottom=0;labelBorderColor=none;rounded=1;strokeColor=#d6b656;" parent="B7DI4YMN_xVC8xf2l_Bk-3" vertex="1">
          <mxGeometry y="90" width="220" height="30" as="geometry" />
        </mxCell>
        <mxCell id="B7DI4YMN_xVC8xf2l_Bk-8" value="" style="shape=partialRectangle;overflow=hidden;connectable=0;fillColor=#fff2cc;top=0;left=0;bottom=0;right=0;labelBorderColor=none;rounded=1;strokeColor=#d6b656;" parent="B7DI4YMN_xVC8xf2l_Bk-7" vertex="1">
          <mxGeometry width="30" height="30" as="geometry" />
        </mxCell>
        <mxCell id="B7DI4YMN_xVC8xf2l_Bk-9" value="name char(50) NOT NULL" style="shape=partialRectangle;overflow=hidden;connectable=0;fillColor=#fff2cc;top=0;left=0;bottom=0;right=0;align=left;spacingLeft=6;labelBorderColor=none;rounded=1;strokeColor=#d6b656;" parent="B7DI4YMN_xVC8xf2l_Bk-7" vertex="1">
          <mxGeometry x="30" width="190" height="30" as="geometry" />
        </mxCell>
        <mxCell id="B7DI4YMN_xVC8xf2l_Bk-13" value="" style="shape=partialRectangle;collapsible=0;dropTarget=0;pointerEvents=0;fillColor=#fff2cc;points=[[0,0.5],[1,0.5]];portConstraint=eastwest;top=0;left=0;right=0;bottom=0;labelBorderColor=none;rounded=1;strokeColor=#d6b656;" parent="B7DI4YMN_xVC8xf2l_Bk-3" vertex="1">
          <mxGeometry y="120" width="220" height="30" as="geometry" />
        </mxCell>
        <mxCell id="B7DI4YMN_xVC8xf2l_Bk-14" value="" style="shape=partialRectangle;overflow=hidden;connectable=0;fillColor=#fff2cc;top=0;left=0;bottom=0;right=0;labelBorderColor=none;rounded=1;strokeColor=#d6b656;" parent="B7DI4YMN_xVC8xf2l_Bk-13" vertex="1">
          <mxGeometry width="30" height="30" as="geometry" />
        </mxCell>
        <mxCell id="B7DI4YMN_xVC8xf2l_Bk-15" value="phone char(11) NOT NULL" style="shape=partialRectangle;overflow=hidden;connectable=0;fillColor=#fff2cc;top=0;left=0;bottom=0;right=0;align=left;spacingLeft=6;labelBorderColor=none;rounded=1;strokeColor=#d6b656;" parent="B7DI4YMN_xVC8xf2l_Bk-13" vertex="1">
          <mxGeometry x="30" width="190" height="30" as="geometry" />
        </mxCell>
        <mxCell id="B7DI4YMN_xVC8xf2l_Bk-16" value="" style="shape=partialRectangle;collapsible=0;dropTarget=0;pointerEvents=0;fillColor=#fff2cc;points=[[0,0.5],[1,0.5]];portConstraint=eastwest;top=0;left=0;right=0;bottom=0;labelBorderColor=none;rounded=1;strokeColor=#d6b656;" parent="B7DI4YMN_xVC8xf2l_Bk-3" vertex="1">
          <mxGeometry y="150" width="220" height="30" as="geometry" />
        </mxCell>
        <mxCell id="B7DI4YMN_xVC8xf2l_Bk-17" value="" style="shape=partialRectangle;overflow=hidden;connectable=0;fillColor=#fff2cc;top=0;left=0;bottom=0;right=0;labelBorderColor=none;rounded=1;strokeColor=#d6b656;" parent="B7DI4YMN_xVC8xf2l_Bk-16" vertex="1">
          <mxGeometry width="30" height="30" as="geometry" />
        </mxCell>
        <mxCell id="B7DI4YMN_xVC8xf2l_Bk-18" value="email char(50) NOT NULL" style="shape=partialRectangle;overflow=hidden;connectable=0;fillColor=#fff2cc;top=0;left=0;bottom=0;right=0;align=left;spacingLeft=6;labelBorderColor=none;rounded=1;strokeColor=#d6b656;" parent="B7DI4YMN_xVC8xf2l_Bk-16" vertex="1">
          <mxGeometry x="30" width="190" height="30" as="geometry" />
        </mxCell>
        <mxCell id="5-2vUzAHZTlrWetlaagz-5" style="edgeStyle=orthogonalEdgeStyle;rounded=1;orthogonalLoop=1;jettySize=auto;html=1;labelBorderColor=none;endArrow=ERmany;endFill=0;startArrow=ERone;startFill=0;strokeWidth=1;endSize=12;startSize=12;fillColor=#fff2cc;strokeColor=#d6b656;exitX=1;exitY=0.5;exitDx=0;exitDy=0;entryX=0.5;entryY=1;entryDx=0;entryDy=0;" edge="1" parent="1" source="3xXCg58mIov3dv1Vw5mf-16" target="B7DI4YMN_xVC8xf2l_Bk-3">
          <mxGeometry relative="1" as="geometry">
            <mxPoint x="355" y="-410" as="sourcePoint" />
            <mxPoint x="1000" y="-140" as="targetPoint" />
            <Array as="points">
              <mxPoint x="1040" y="-175" />
            </Array>
          </mxGeometry>
        </mxCell>
        <mxCell id="5-2vUzAHZTlrWetlaagz-6" value="Aqui entre oficina (mechanical workshop em inglês), category e item.&lt;br&gt;Eu não sei como coloco, por exemplo, uma oficina pode ter suas categories de items, certo.&lt;br&gt;&lt;br&gt;Então fica:&lt;br&gt;* 1 oficina pode ter n categorias,&lt;br&gt;* n itens podem ter m categorias,&lt;br&gt;* n orders podem ter m items&lt;br&gt;&lt;br&gt;Então a oficina cadastra primeiro a categoria e depois os items? Ou seja, para cadastrar um item, deve haver uma categoría pré cadastrada antes para que ele possa fazer a ligação.&lt;br&gt;&lt;br&gt;O que acha?" style="rounded=1;whiteSpace=wrap;html=1;fillColor=#FFC4C4;" vertex="1" parent="1">
          <mxGeometry x="490" y="-10" width="460" height="230" as="geometry" />
        </mxCell>
        <mxCell id="GytPN-wBxECgcy7hrlEQ-75" value="Items" style="shape=table;startSize=30;container=1;collapsible=1;childLayout=tableLayout;fixedRows=1;rowLines=0;fontStyle=1;align=center;resizeLast=1;labelBorderColor=none;rounded=1;fillColor=#fff2cc;strokeColor=#d6b656;" parent="1" vertex="1">
          <mxGeometry x="470" y="230" width="250" height="150" as="geometry">
            <mxRectangle x="500" y="100" width="60" height="30" as="alternateBounds" />
          </mxGeometry>
        </mxCell>
        <mxCell id="GytPN-wBxECgcy7hrlEQ-76" value="" style="shape=partialRectangle;collapsible=0;dropTarget=0;pointerEvents=0;fillColor=#fff2cc;points=[[0,0.5],[1,0.5]];portConstraint=eastwest;top=0;left=0;right=0;bottom=1;labelBorderColor=none;rounded=1;strokeColor=#d6b656;" parent="GytPN-wBxECgcy7hrlEQ-75" vertex="1">
          <mxGeometry y="30" width="250" height="30" as="geometry" />
        </mxCell>
        <mxCell id="GytPN-wBxECgcy7hrlEQ-77" value="PK" style="shape=partialRectangle;overflow=hidden;connectable=0;fillColor=#fff2cc;top=0;left=0;bottom=0;right=0;fontStyle=1;labelBorderColor=none;rounded=1;strokeColor=#d6b656;" parent="GytPN-wBxECgcy7hrlEQ-76" vertex="1">
          <mxGeometry width="30" height="30" as="geometry" />
        </mxCell>
        <mxCell id="GytPN-wBxECgcy7hrlEQ-78" value="id int NOT NULL " style="shape=partialRectangle;overflow=hidden;connectable=0;fillColor=#fff2cc;top=0;left=0;bottom=0;right=0;align=left;spacingLeft=6;fontStyle=5;labelBorderColor=none;rounded=1;strokeColor=#d6b656;" parent="GytPN-wBxECgcy7hrlEQ-76" vertex="1">
          <mxGeometry x="30" width="220" height="30" as="geometry" />
        </mxCell>
        <mxCell id="GytPN-wBxECgcy7hrlEQ-79" value="" style="shape=partialRectangle;collapsible=0;dropTarget=0;pointerEvents=0;fillColor=#fff2cc;points=[[0,0.5],[1,0.5]];portConstraint=eastwest;top=0;left=0;right=0;bottom=0;labelBorderColor=none;rounded=1;strokeColor=#d6b656;" parent="GytPN-wBxECgcy7hrlEQ-75" vertex="1">
          <mxGeometry y="60" width="250" height="30" as="geometry" />
        </mxCell>
        <mxCell id="GytPN-wBxECgcy7hrlEQ-80" value="" style="shape=partialRectangle;overflow=hidden;connectable=0;fillColor=#fff2cc;top=0;left=0;bottom=0;right=0;labelBorderColor=none;rounded=1;strokeColor=#d6b656;" parent="GytPN-wBxECgcy7hrlEQ-79" vertex="1">
          <mxGeometry width="30" height="30" as="geometry" />
        </mxCell>
        <mxCell id="GytPN-wBxECgcy7hrlEQ-81" value="name char(50) NOT NULL" style="shape=partialRectangle;overflow=hidden;connectable=0;fillColor=#fff2cc;top=0;left=0;bottom=0;right=0;align=left;spacingLeft=6;labelBorderColor=none;rounded=1;strokeColor=#d6b656;" parent="GytPN-wBxECgcy7hrlEQ-79" vertex="1">
          <mxGeometry x="30" width="220" height="30" as="geometry" />
        </mxCell>
        <mxCell id="r2mLpPCgo3H6nydPWxPj-20" value="" style="shape=partialRectangle;collapsible=0;dropTarget=0;pointerEvents=0;fillColor=#fff2cc;points=[[0,0.5],[1,0.5]];portConstraint=eastwest;top=0;left=0;right=0;bottom=0;labelBorderColor=none;rounded=1;strokeColor=#d6b656;" parent="GytPN-wBxECgcy7hrlEQ-75" vertex="1">
          <mxGeometry y="90" width="250" height="30" as="geometry" />
        </mxCell>
        <mxCell id="r2mLpPCgo3H6nydPWxPj-21" value="" style="shape=partialRectangle;overflow=hidden;connectable=0;fillColor=#fff2cc;top=0;left=0;bottom=0;right=0;labelBorderColor=none;rounded=1;strokeColor=#d6b656;" parent="r2mLpPCgo3H6nydPWxPj-20" vertex="1">
          <mxGeometry width="30" height="30" as="geometry" />
        </mxCell>
        <mxCell id="r2mLpPCgo3H6nydPWxPj-22" value="description char(50) NOT NULL" style="shape=partialRectangle;overflow=hidden;connectable=0;fillColor=#fff2cc;top=0;left=0;bottom=0;right=0;align=left;spacingLeft=6;labelBorderColor=none;rounded=1;strokeColor=#d6b656;" parent="r2mLpPCgo3H6nydPWxPj-20" vertex="1">
          <mxGeometry x="30" width="220" height="30" as="geometry" />
        </mxCell>
        <mxCell id="r2mLpPCgo3H6nydPWxPj-23" value="" style="shape=partialRectangle;collapsible=0;dropTarget=0;pointerEvents=0;fillColor=#fff2cc;points=[[0,0.5],[1,0.5]];portConstraint=eastwest;top=0;left=0;right=0;bottom=0;labelBorderColor=none;rounded=1;strokeColor=#d6b656;" parent="GytPN-wBxECgcy7hrlEQ-75" vertex="1">
          <mxGeometry y="120" width="250" height="30" as="geometry" />
        </mxCell>
        <mxCell id="r2mLpPCgo3H6nydPWxPj-24" value="" style="shape=partialRectangle;overflow=hidden;connectable=0;fillColor=#fff2cc;top=0;left=0;bottom=0;right=0;labelBorderColor=none;rounded=1;strokeColor=#d6b656;" parent="r2mLpPCgo3H6nydPWxPj-23" vertex="1">
          <mxGeometry width="30" height="30" as="geometry" />
        </mxCell>
        <mxCell id="r2mLpPCgo3H6nydPWxPj-25" value="price decimal NOT NULL" style="shape=partialRectangle;overflow=hidden;connectable=0;fillColor=#fff2cc;top=0;left=0;bottom=0;right=0;align=left;spacingLeft=6;labelBorderColor=none;rounded=1;strokeColor=#d6b656;" parent="r2mLpPCgo3H6nydPWxPj-23" vertex="1">
          <mxGeometry x="30" width="220" height="30" as="geometry" />
        </mxCell>
        <mxCell id="GytPN-wBxECgcy7hrlEQ-35" value="Categories" style="shape=table;startSize=30;container=1;collapsible=1;childLayout=tableLayout;fixedRows=1;rowLines=0;fontStyle=1;align=center;resizeLast=1;labelBorderColor=none;rounded=1;fillColor=#fff2cc;strokeColor=#d6b656;" parent="1" vertex="1">
          <mxGeometry x="890" y="260" width="250" height="90" as="geometry" />
        </mxCell>
        <mxCell id="GytPN-wBxECgcy7hrlEQ-36" value="" style="shape=partialRectangle;collapsible=0;dropTarget=0;pointerEvents=0;fillColor=#fff2cc;points=[[0,0.5],[1,0.5]];portConstraint=eastwest;top=0;left=0;right=0;bottom=1;labelBorderColor=none;rounded=1;strokeColor=#d6b656;" parent="GytPN-wBxECgcy7hrlEQ-35" vertex="1">
          <mxGeometry y="30" width="250" height="30" as="geometry" />
        </mxCell>
        <mxCell id="GytPN-wBxECgcy7hrlEQ-37" value="PK" style="shape=partialRectangle;overflow=hidden;connectable=0;fillColor=#fff2cc;top=0;left=0;bottom=0;right=0;fontStyle=1;labelBorderColor=none;rounded=1;strokeColor=#d6b656;" parent="GytPN-wBxECgcy7hrlEQ-36" vertex="1">
          <mxGeometry width="30" height="30" as="geometry" />
        </mxCell>
        <mxCell id="GytPN-wBxECgcy7hrlEQ-38" value="id int NOT NULL " style="shape=partialRectangle;overflow=hidden;connectable=0;fillColor=#fff2cc;top=0;left=0;bottom=0;right=0;align=left;spacingLeft=6;fontStyle=5;labelBorderColor=none;rounded=1;strokeColor=#d6b656;" parent="GytPN-wBxECgcy7hrlEQ-36" vertex="1">
          <mxGeometry x="30" width="220" height="30" as="geometry" />
        </mxCell>
        <mxCell id="GytPN-wBxECgcy7hrlEQ-39" value="" style="shape=partialRectangle;collapsible=0;dropTarget=0;pointerEvents=0;fillColor=#fff2cc;points=[[0,0.5],[1,0.5]];portConstraint=eastwest;top=0;left=0;right=0;bottom=0;labelBorderColor=none;rounded=1;strokeColor=#d6b656;" parent="GytPN-wBxECgcy7hrlEQ-35" vertex="1">
          <mxGeometry y="60" width="250" height="30" as="geometry" />
        </mxCell>
        <mxCell id="GytPN-wBxECgcy7hrlEQ-40" value="" style="shape=partialRectangle;overflow=hidden;connectable=0;fillColor=#fff2cc;top=0;left=0;bottom=0;right=0;labelBorderColor=none;rounded=1;strokeColor=#d6b656;" parent="GytPN-wBxECgcy7hrlEQ-39" vertex="1">
          <mxGeometry width="30" height="30" as="geometry" />
        </mxCell>
        <mxCell id="GytPN-wBxECgcy7hrlEQ-41" value="name char(50) NOT NULL" style="shape=partialRectangle;overflow=hidden;connectable=0;fillColor=#fff2cc;top=0;left=0;bottom=0;right=0;align=left;spacingLeft=6;labelBorderColor=none;rounded=1;strokeColor=#d6b656;" parent="GytPN-wBxECgcy7hrlEQ-39" vertex="1">
          <mxGeometry x="30" width="220" height="30" as="geometry" />
        </mxCell>
        <mxCell id="5-2vUzAHZTlrWetlaagz-7" value="order_date datetime NOT NULL" style="shape=partialRectangle;overflow=hidden;connectable=0;fillColor=#fff2cc;top=0;left=0;bottom=0;right=0;align=left;spacingLeft=6;labelBorderColor=none;rounded=1;strokeColor=#d6b656;" vertex="1" parent="1">
          <mxGeometry x="250" y="60" width="220" height="30" as="geometry" />
        </mxCell>
        <mxCell id="5-2vUzAHZTlrWetlaagz-9" style="edgeStyle=orthogonalEdgeStyle;rounded=1;orthogonalLoop=1;jettySize=auto;html=1;labelBorderColor=none;endArrow=ERmany;endFill=0;startArrow=ERone;startFill=0;strokeWidth=1;endSize=12;startSize=12;fillColor=#fff2cc;strokeColor=#d6b656;exitX=1;exitY=0.75;exitDx=0;exitDy=0;entryX=0.5;entryY=0;entryDx=0;entryDy=0;" edge="1" parent="1" source="GytPN-wBxECgcy7hrlEQ-15" target="GytPN-wBxECgcy7hrlEQ-35">
          <mxGeometry relative="1" as="geometry">
            <mxPoint x="840" y="-165" as="sourcePoint" />
            <mxPoint x="1050" y="-190" as="targetPoint" />
            <Array as="points">
              <mxPoint x="1015" y="-115" />
            </Array>
          </mxGeometry>
        </mxCell>
      </root>
    </mxGraphModel>
  </diagram>
</mxfile>
